<?xml version="1.0" encoding="utf-8"?>
<!-- Generator: Adobe Illustrator 24.0.0, SVG Export Plug-In . SVG Version: 6.00 Build 0)  -->
<svg version="1.1" id="Laag_1" xmlns="http://www.w3.org/2000/svg" xmlns:xlink="http://www.w3.org/1999/xlink" x="0px" y="0px"
	 viewBox="0 0 486.26 154.38" style="enable-background:new 0 0 486.26 154.38;" xml:space="preserve">
<style type="text/css">
	.st0{fill:#FEFEFE;}
	.st1{fill:#1A80C3;}
	.st2{fill:#DAE7B4;}
	.st3{fill:#B3D5EB;}
	.st4{fill:#9DC9E6;}
	.st5{fill:#B5D168;}
	.st6{fill:#DAE7B3;}
	.st7{fill:#E3EDC6;}
	.st8{fill:#F4F8E9;}
	.st9{fill:#94C123;}
	.st10{fill:#10334F;}
	.st11{fill:#D5E8F5;}
	.st12{fill:#AFD1EA;}
	.st13{fill:#C0D77F;}
	.st14{fill:#ACCFE9;}
	.st15{fill:#11344F;}
	.st16{fill:#B6D5EC;}
	.st17{fill:#B4D4EC;}
	.st18{fill:#B9D7ED;}
	.st19{fill:#94C124;}
	.st20{fill:#BCD9EE;}
	.st21{fill:#7EB5DD;}
	.st22{fill:#C4D986;}
	.st23{fill:#A1CAE7;}
	.st24{fill:#B0D1EA;}
	.st25{fill:#AACEE9;}
	.st26{fill:#123550;}
	.st27{fill:#AFCD5B;}
	.st28{fill:#B8D7ED;}
	.st29{fill:#143650;}
	.st30{fill:#BAD6ED;}
	.st31{fill:#B2D3EB;}
	.st32{fill:#C4DDF0;}
	.st33{fill:#ABD0E9;}
	.st34{fill:#B5D5EC;}
	.st35{fill:#153750;}
	.st36{fill:#B9D6EC;}
	.st37{fill:#D3E3A6;}
	.st38{fill:#B2D2EB;}
	.st39{fill:#153751;}
	.st40{fill:#163751;}
	.st41{fill:#163750;}
	.st42{fill:#D9E6B2;}
	.st43{fill:#60A5D6;}
	.st44{fill:#E4EDC8;}
	.st45{fill:#B9D370;}
	.st46{fill:#71ADDA;}
	.st47{fill:#7CB4DC;}
	.st48{fill:#7AB2DC;}
	.st49{fill:#C5DA88;}
	.st50{fill:#1C3C55;}
	.st51{fill:#ABCFE9;}
	.st52{fill:#1E3D55;}
	.st53{fill:#CEE4F3;}
	.st54{fill:#CCDABE;}
	.st55{fill:#325A61;}
	.st56{fill:#98C7E4;}
	.st57{fill:#B1C1B2;}
	.st58{fill:#B9D6ED;}
	.st59{fill:#C3DCEF;}
	.st60{fill:#59A2D4;}
	.st61{fill:#DEE9BD;}
	.st62{fill:#FFFFFF;}
	.st63{fill:#11334F;}
	.st64{fill:#F9FAF9;}
	.st65{fill:#C3D2B2;}
	.st66{fill:#C3CDC8;}
	.st67{fill:#ABC770;}
	.st68{fill:#14364F;}
	.st69{fill:#C2DDEF;}
</style>
<g>
	<path class="st0" d="M8.75,63.98c0-18.27,0.01-36.55-0.02-54.82c0-0.9,0.2-1.1,1.1-1.1c101.55,0.02,203.1,0.02,304.65,0.02
		c-0.01,0.58-0.48,0.65-0.89,0.81c-2.64,0.99-4.28,3.33-4.29,6.16c-0.01,4.96-0.06,9.92,0.03,14.87c0.03,1.63-0.03,3.26-0.04,4.89
		c-0.11,22.82,0.41,45.64,0.28,68.46c-0.01,1.82,0.25,3.66,0.21,5.48c0.48,0.07,0.54-0.39,0.71-0.62c2.69-3.61,6.05-6.35,10.25-8.01
		c0.41-0.16,0.83-0.32,1-0.79c0.12-0.44,0.07-0.88,0.07-1.32c0-27.34,0-54.67,0.01-82.01c0-3.09-1.14-5.5-3.88-7.06
		c-0.28-0.23-0.65-0.41-0.59-0.87c27.6,0,55.19,0,82.79,0c0.11,0.4-0.23,0.47-0.46,0.63c-0.11,0.05-0.22,0.08-0.34,0.11
		c-4.98,0.44-9.5,2.11-13.52,5.11c-0.7,0.52-1.32,1.15-1.81,1.88c-4.49,4.73-6.44,10.51-7.11,16.87c-0.24,2.23-0.13,4.46-0.18,6.69
		c-0.04,1.92-0.23,2.14-2.13,2.16c-2.45,0.03-4.67,0.56-6.26,2.62c-1.47,2.04-1.42,4.23-0.38,6.34c1.07,2.17,2.99,3.25,5.43,3.33
		c0.08,0,0.16,0,0.24,0c3,0.03,3.04-0.31,3.07,3.16c0.08,8.07,0.02,16.14,0.03,24.21c0,6.15-0.01,12.31,0.01,18.46
		c0.01,2.34,0.85,4.27,2.84,5.63c2.04,1.39,4.11,1.34,6.2,0.17c1.93-1.08,2.99-2.75,2.99-4.97c0.02-14.54,0.01-29.09,0.01-43.63
		c0-0.4,0-0.8,0-1.2c0.02-1.78,0.14-1.87,1.9-1.85c3.44,0.03,6.88,0.08,10.31-0.02c1.61-0.04,3.15-0.5,4.34-1.72
		c1.55-1.63,2.32-3.5,1.82-5.78c-0.27-1.25-0.85-2.31-1.83-3.15c-1.01-1.18-2.34-1.6-3.84-1.6c-3.51-0.01-7.02,0-10.53,0
		c-1.97,0-2.17-0.22-2.18-2.22c-0.01-3.06-0.17-6.14,0.94-9.09c0.3-0.78,0.64-1.54,0.99-2.3c2.44-4.13,6.22-6.19,10.83-6.95
		c1.79,0.05,3.56-0.33,5.35-0.32c2.9-0.67,4.69-2.56,5.1-5.54c0.29-2.07-0.83-4.91-3.29-6.12c-0.14-0.07-0.28-0.16-0.4-0.25
		c-0.18-0.18-0.34-0.36-0.22-0.64c23.91,0,47.83,0,71.74-0.02c0.8,0,1,0.12,1,0.97c-0.03,46.14-0.03,92.28,0,138.41
		c0,0.94-0.28,1.01-1.07,1.01c-156.64-0.02-313.28-0.02-469.92,0.01c-0.93,0-1.09-0.24-1.09-1.12c0.03-24.03,0.02-48.06,0.02-72.08
		c0.64-0.07,0.69,0.42,0.76,0.84c0.84,5.6,3.22,10.53,6.57,15.04c4.6,6.03,10.37,10.41,17.66,12.7c2.79,0.99,5.72,1.21,8.6,1.65
		c1.41,0.3,2.83,0.13,4.24,0.11c0.12-0.05,0.24-0.08,0.36-0.1c0.43-0.07,0.86-0.09,1.27-0.24c0.49-0.11,0.98-0.08,1.48-0.09
		c0.41-0.01,0.84,0.05,1.22-0.18c2.74-0.55,5.43-1.26,7.99-2.42c3.22-1.46,6.2-3.3,8.8-5.71c2.19-2.04,2.73-4.51,1.63-7.31
		c-0.09-0.22-0.17-0.45-0.22-0.68c-1.77-3.87-7.21-4.08-9.7-1.99c-2.63,2.21-5.52,3.95-8.89,4.77c-6.27,1.53-12.2,0.67-17.76-2.63
		c-4.2-2.49-7.24-5.99-9.13-10.48c-0.79-1.87-0.57-2.16,1.44-2.16c10.68,0,21.36,0.13,32.04-0.05c5.47-0.09,10.95-0.11,16.42-0.22
		c1.13-0.02,2.33-0.07,3.34-0.75c2.43-1.61,3.46-3.77,3.39-6.78c-0.14-6.36-1.84-12.21-5.16-17.56c-3.27-5.28-7.66-9.49-13.06-12.58
		c-4.42-2.53-9.18-3.96-14.28-4.42c-7.93-0.71-15.25,1.02-21.96,5.19c-3.3,2.05-6.23,4.59-8.67,7.65
		c-3.75,4.45-6.23,9.54-7.51,15.21c-0.08,0.35-0.03,0.72-0.1,1.07C9.42,63.55,9.39,64.05,8.75,63.98z"/>
	<path class="st1" d="M8.75,72.13c0-1.68,0-3.36,0-5.04c0.37-2.01,0.54-4.05,1.02-6.06c1.05-4.44,2.99-8.44,5.59-12.15
		c0.48-0.68,1-1.33,1.5-2c2.38-2.64,4.91-5.12,7.86-7.13c4.25-2.9,8.92-4.73,14.01-5.53c2.16-0.34,4.34-0.53,6.53-0.48
		c7.55,0.18,14.42,2.41,20.48,6.97c5.09,3.83,9.13,8.54,11.7,14.41c1.23,2.81,2.08,5.74,2.53,8.81c0.25,1.66,0.33,3.31,0.43,4.98
		c0.16,2.7-0.88,4.79-3.13,6.28c-0.23,0.15-0.44,0.35-0.7,0.47c-0.96,0.46-2,0.55-3.04,0.55c-4.31,0-8.63,0.02-12.94,0.12
		c-11.95,0.28-23.9,0.05-35.85,0.12c-0.2,0-0.4,0.01-0.6,0c-0.8-0.03-1.09,0.21-0.77,1.07c2.22,5.85,6.19,10.07,11.87,12.65
		c5.79,2.64,11.71,2.71,17.65,0.57c2.31-0.83,4.31-2.24,6.2-3.79c2.61-2.14,6.18-2.13,8.69-0.04c0.62,0.52,1.09,1.16,1.46,1.87
		c0.1,0.55,0.38,1.04,0.52,1.58c0.85,3.17-0.52,5.52-2.86,7.4c-4.15,3.33-8.8,5.7-14.01,6.9c-0.93,0.21-1.89,0.28-2.81,0.56
		c-5.54,0.95-10.96,0.27-16.31-1.25c-4.47-1.45-8.51-3.65-12.08-6.75c-2.08-1.81-4.02-3.72-5.65-5.94
		c-3.07-4.04-5.24-8.49-6.35-13.47C9.28,75.94,9.1,74.03,8.75,72.13z"/>
	<path class="st2" d="M317.84,8.55c2.98,1.45,4.3,3.89,4.3,7.13c0.02,27.65,0.03,55.3,0.04,82.96c0,0.44,0.23,0.97-0.26,1.33
		c-0.52-0.57-0.37-1.28-0.37-1.94c-0.01-5.52,0.03-11.03-0.02-16.55c-0.03-3,0-5.99,0.02-8.99c0.14-18.78-0.4-37.56-0.26-56.35
		c0.02-2.06-0.18-4.09-1.9-5.6c-1.71-1.5-3.64-1.97-5.79-1.18c-2.18,0.8-3.42,2.41-3.74,4.72c-0.08,0.56-0.04,1.12-0.04,1.68
		c0,19.59-0.17,39.17,0.07,58.76c0.13,10.91,0.05,21.82,0.17,32.73c0.01,0.8,0.03,1.6-0.38,2.34c-0.54-0.08-0.26-0.51-0.27-0.75
		c-0.34-13.66-0.04-27.33-0.28-40.99c-0.21-11.35-0.06-22.69-0.13-34.04c-0.04-6.06,0.08-12.13-0.07-18.19
		c-0.07-3.01,1.86-6.65,5.08-7.2c0.17-0.03,0.32-0.22,0.48-0.33c0.64,0,1.28,0,1.92,0C316.84,8.34,317.38,8.32,317.84,8.55z"/>
	<path class="st3" d="M16.94,47.01c-2.04,2.71-3.92,5.5-5.22,8.65c-1.3,3.17-2.27,6.43-2.48,9.88c-0.03,0.56-0.11,1.11-0.49,1.56
		c0-1.04,0-2.08,0-3.12c0.78-1.03,0.61-2.31,0.92-3.47c1.4-5.14,3.71-9.78,7.24-13.79c0.06,0.06,0.09,0.12,0.08,0.19
		C16.97,46.97,16.96,47.01,16.94,47.01z"/>
	<path class="st4" d="M8.75,72.13c0.91,0.92,0.47,2.14,0.64,3.2c0.91,5.52,2.91,10.57,6.21,15.1c0.21,0.29,0.39,0.6,0.59,0.9
		c-0.08,0.1-0.17,0.1-0.26,0.01c-2.45-3.03-4.27-6.41-5.48-10.12c-0.57-1.74-1.13-3.48-1.25-5.32c-0.02-0.31-0.16-0.52-0.45-0.65
		C8.75,74.21,8.75,73.17,8.75,72.13z"/>
	<path class="st5" d="M402.79,8.08c1.44,0,2.88,0,4.32,0c0.15,0.22,0.13,0.42-0.06,0.59c-0.2,0.13-0.43,0.21-0.67,0.21
		c-1.78-0.01-3.55,0.13-5.33,0.27c-0.43,0.03-0.87,0.01-1.27-0.22c-0.14-0.1-0.18-0.23-0.11-0.38l0,0
		C400.65,8.06,401.8,8.59,402.79,8.08z"/>
	<path class="st6" d="M402.79,8.08c-0.94,0.82-2.08,0.32-3.12,0.47c0.16-0.16,0.32-0.32,0.48-0.47
		C401.03,8.08,401.91,8.08,402.79,8.08z"/>
	<path class="st7" d="M407.14,8.52c-0.01-0.15-0.02-0.3-0.03-0.45c0.32,0,0.64,0,0.96,0c0.09,0.15,0.19,0.29,0.28,0.44
		c-0.12,0.18-0.3,0.25-0.5,0.28C407.57,8.81,407.31,8.77,407.14,8.52z"/>
	<path class="st8" d="M317.84,8.55c-0.53,0-1.06,0-1.44-0.47c0.32,0,0.64,0,0.96,0C317.52,8.23,317.68,8.39,317.84,8.55z"/>
	<path class="st1" d="M94.44,48.39c0.71-0.87,1.43-1.75,2.14-2.62c3.81-4.45,8.42-7.77,13.88-9.91c5.48-2.15,11.16-2.71,17.01-2.15
		c7.22,0.69,13.53,3.49,19,8.13c2.61,2.21,4.98,4.71,6.86,7.61c2.83,4.15,4.63,8.71,5.47,13.66c0.38,2.23,0.53,4.49,0.53,6.76
		c-0.02,9.47,0.22,18.93,0.11,28.4c-0.04,2.93-1.31,5.17-4.06,6.35c-4.3,1.84-9.1-1.31-9.08-5.84c0-0.42,0.12-1-0.33-1.18
		c-0.41-0.16-0.77,0.28-1.12,0.54c-5.24,3.87-11.03,6.31-17.57,6.89c-1.78,0.16-3.54,0.35-5.35,0.24
		c-6.24-0.37-12.09-1.96-17.37-5.39c-7.48-4.87-12.74-11.45-15.39-20.03c-1.32-4.27-1.62-8.64-1.37-13.09
		C88.19,59.96,90.42,53.86,94.44,48.39z"/>
	<path class="st9" d="M465.67,96.62c-0.85,0.39-1.69-0.11-2.58,0.05c-3.69,0.68-6.33,2.89-8.66,5.62c-0.6,0.7-1.12,1.45-1.71,2.16
		c-0.5,0.6-0.79,0.66-1.03-0.27c-0.64-2.49-2.06-4.48-4.73-4.82c-2.49-0.32-5.12-0.52-7.26,1.37c-0.4,0.36-0.66,0.37-1.08,0.02
		c-0.74-0.62-1.64-0.79-2.58-0.52c-0.36,0.1-0.69,0.11-1.04,0c-0.9-0.27-1.73-0.08-2.57,0.47c-0.39-1.06-0.73-2.11-1.47-2.96
		c-1.24-1.43-2.72-2.17-4.65-1.86c-0.35,0.06-0.72,0.03-1.07-0.02c-1.7-0.24-3.09,0.26-4.04,1.73c-0.44,0.68-0.77,0.69-1.34,0.14
		c-1.55-1.51-3.06-3.04-4.45-4.7c-0.67-0.8-0.95-1.74-1.24-2.69c-0.3-0.99-0.85-1.78-1.72-2.37c-1.17-0.8-1.46-2.17-1.91-3.37
		c-2.02-5.39-2.77-10.92-2.12-16.69c1.02-9.04,5.16-16.31,11.94-22.22c5.03-4.38,10.83-7.04,17.43-7.83
		c12.8-1.53,23.3,2.82,31.55,12.65c4.01,4.77,6.33,10.34,7.1,16.5c0.26,2.03,0.83,4.09,0.2,6.17c-0.98,3.23-3.15,4.94-6.51,4.94
		c-12.15,0.04-24.31,0.04-36.46,0.06c-3.6,0.01-7.2,0.03-10.8,0c-1.06-0.01-1.26,0.34-0.91,1.29c0.9,2.43,2.26,4.58,3.85,6.59
		c3.66,4.2,8.25,6.61,13.79,7.38c6.48,0.9,12.09-0.86,17.1-4.98c3.29-2.7,8.88-1.29,9.89,3.49C466.98,93.7,466.72,95.2,465.67,96.62
		z"/>
	<path class="st1" d="M222.59,71.89c2.57,2.42,4.22,5.33,4.9,8.83c1.07,5.49-0.59,10.12-4.18,14.22c-3.16,3.59-7.13,5.98-11.55,7.64
		c-4.32,1.61-8.82,2.5-13.43,2.41c-7.79-0.15-14.88-2.48-21.09-7.27c-0.32-0.24-0.69-0.4-0.95-0.72c-2.09-1.66-4.17-3.37-5.54-5.71
		c-2.09-3.54-0.03-8.51,4.16-9.49c2.39-0.56,4.15,0.18,5.87,1.67c2.07,1.79,3.92,3.86,6.35,5.21c1.99,1.21,4.14,2.04,6.42,2.54
		c2.75,0.61,5.55,0.66,8.32,0.34c4.66-0.54,8.77-2.32,11.89-5.95c1.31-1.53,1.27-4.29-1.32-5.11c-5.02-1.58-10.03-3.2-15.02-4.89
		c-5.7-1.93-11.51-3.55-17.1-5.8c-4.73-1.9-8.09-5.15-9.91-9.94c-0.58-2.28-1.17-4.53-0.85-6.94c0.91-6.9,5.12-11.41,10.77-14.82
		c4.12-2.49,8.66-3.84,13.4-4.56c6.29-0.95,12.4-0.16,18.27,2.22c4.22,1.71,7.97,4.18,11.22,7.39c0.77,0.76,1.53,1.52,2.29,2.29
		c2.51,2.53,2.54,6.59,0.06,9.17c-2.6,2.62-5.72,2.75-8.66,0.5c-1.28-0.98-2.3-2.2-3.51-3.23c-2.3-1.97-4.9-3.38-7.74-4.39
		c-2.8-0.86-5.68-1.22-8.59-1.01c-4.31,0.31-8.34,1.5-11.75,4.32c-0.52,0.36-0.92,0.87-1.4,1.28c-1.32,1.16-1.46,2.68-0.97,4.13
		c0.42,1.26,1.72,1.66,3,1.82c3.95,1.33,7.91,2.6,11.87,3.89c0.9,0.3,1.81,0.59,2.7,0.9c3.35,1.33,6.82,2.27,10.22,3.43
		c2.1,0.83,4.32,1.32,6.36,2.34C219.02,69.56,220.96,70.46,222.59,71.89z"/>
	<path class="st1" d="M274.88,92.31c-3.35,8.15-6.71,16.3-10.06,24.45c-1.88,4.57-3.78,9.14-5.6,13.74
		c-1.01,2.55-2.77,4.25-5.33,5.09c-0.62,0.2-1.35,0.07-2.02,0.09c-0.41-0.28-0.93-0.12-1.35-0.34c-3.51-1.28-5.56-5.38-3.68-9.57
		c2.33-5.18,4.34-10.49,6.56-15.72c1.56-3.7,3.06-7.42,4.62-11.12c0.23-0.56,0.19-1.06-0.04-1.61c-2.77-6.43-5.41-12.91-8.15-19.35
		c-1.61-3.77-3.14-7.57-4.77-11.33c-0.72-1.98-1.65-3.87-2.43-5.83c-2.2-5.25-4.4-10.5-6.6-15.76c-0.43-1.03-0.86-2.06-1.28-3.09
		c-1.38-3.33,0.64-7.01,3.38-8.26c3.36-1.53,6.91-0.26,8.65,3.02c0.65,1.23,1.21,2.5,1.6,3.84c0.07,0.24,0.23,0.41,0.39,0.59
		c1.17,3.01,2.5,5.96,3.73,8.94c3.47,8.35,7.05,16.66,10.52,25.02c0.6,1.43,1.17,2.88,1.83,4.29c0.14,0.29,0.15,0.68,0.55,0.68
		c0.38-0.01,0.46-0.38,0.57-0.68c2.78-6.96,5.71-13.87,8.55-20.81c2.95-7.23,5.97-14.43,8.94-21.65c0.43-1.04,0.99-2.11,1.98-2.8
		c3.93-2.51,9.07-1.04,10.51,3.73c0.45,1.49,0.21,2.92-0.36,4.31c-3.21,7.73-6.38,15.47-9.57,23.21c-2.35,5.6-4.59,11.25-6.96,16.84
		C277.55,85.54,276.27,88.94,274.88,92.31z"/>
	<path class="st9" d="M407.14,8.52c0.22,0.01,0.45,0.03,0.67,0.04c2.76,0.93,4.44,3.3,4.33,6.14c-0.11,3-2.09,5.3-5.17,6.04
		c-1.73-0.03-3.45,0.19-5.18,0.31c-0.12,0.04-0.24,0.06-0.37,0.08c-3.95,0.51-7.24,2.21-9.66,5.45c-0.28,0.38-0.49,0.82-0.83,1.16
		c-2.26,3.98-2.15,8.35-2.06,12.71c0.02,0.92,0.64,0.96,1.33,0.96c3.4,0,6.8,0.07,10.2-0.03c2.01-0.06,3.81,0.25,5.3,1.69
		c2.62,2.39,2.62,6.4,0,8.91c-1.22,1.31-2.84,1.84-4.52,1.87c-3.75,0.07-7.51,0.13-11.27-0.04c-0.71-0.03-0.96,0.23-0.94,0.87
		c0.02,0.4,0.02,0.8,0.02,1.2c0,14.71-0.03,29.41,0.02,44.12c0.01,3.44-2.56,6.28-6.05,6.43c-3.03,0.13-6.22-2.42-6.3-6.05
		c-0.03-1.4-0.15-2.79-0.15-4.19c0.01-12.91,0-25.81,0.01-38.72c0-0.88-0.11-1.75-0.04-2.62c0.05-0.68-0.27-0.95-0.9-0.96
		c-0.56,0-1.12-0.03-1.68,0c-2.64,0.15-4.74-0.89-6-3.17c-1.28-2.3-1.1-4.67,0.35-6.9c1.37-1.97,3.4-2.53,5.63-2.59
		c2.51-0.07,2.55-0.05,2.5-2.59c-0.09-5.02,0.38-9.94,2.15-14.68c1.19-3.18,2.91-6.02,5.31-8.45c2.68-2.64,5.86-4.48,9.45-5.56
		c2.07-0.62,4.12-1.42,6.36-1.19C402.14,8.69,404.64,8.61,407.14,8.52z"/>
	<path class="st9" d="M475.51,114.42c0.7-0.52,0.96-1.35,1.44-2.03c0.2-0.28,0.37-0.71,0.81-0.55c0.38,0.14,0.41,0.55,0.42,0.92
		c0.04,0.86-0.26,1.65-0.58,2.42c-1.08,2.58-2.94,4.53-5.11,6.22c-1.45,1.13-3,2.12-4.64,2.95c-0.7,0.36-1.07,0.81-1.28,1.57
		c-1.39,4.91-2.88,9.79-5.24,14.35c-0.89,1.71-1.89,3.33-3.37,4.61c-1.09,0.95-2.27,1.29-3.64,0.67c-1.38-0.56-1.99-1.78-2.58-3.02
		c-0.12-0.38-0.29-0.73-0.48-1.08c-0.7-2.04-0.28-4.03,0.4-5.97c1.33-3.78,4.02-6.46,7.21-8.71c0.56-0.39,1.13-0.75,1.71-1.1
		c1.95-1.16,1.95-1.16,2.43-3.63c-0.96,0.54-1.52,1.62-2.67,1.69c-1.39,0.5-2.81,0.75-4.29,0.44c-1.5-0.29-2.3-1.4-3-2.64
		c-0.51,0.46-0.69,1.16-1.38,1.33c-2.3,2.54-5.13,3.7-8.57,3.23c-2.32-0.86-3.49-3.31-3.14-6.28c0.4-3.38,1.65-6.47,2.92-9.57
		c0.66-1.61,1.5-3.15,1.91-4.99c-1.03,0.04-1.53,0.76-2.17,1.22c-0.28,0.22-0.6,0.34-0.95,0.42c-3.93,3.61-6.17,8.25-7.95,13.16
		c-0.77,2.13-1.47,4.29-2.22,6.43c-0.16,0.46-0.14,1.16-0.78,1.22c-0.55,0.05-0.88-0.48-1.2-0.89c-0.17-0.22-0.32-0.46-0.47-0.69
		c-0.14,0.26-0.14-0.42-0.37-0.04c-0.33,0.53-0.77,0.98-1.45,1.05c-1.93,1.3-4.03,1.93-6.37,1.57c-1.48-0.12-2.15-1.15-2.66-2.36
		c-0.58,0.38-0.7,1.25-1.51,1.36c-2.23,2.12-4.88,2.9-7.91,2.49c-1.81-0.36-2.47-1.75-2.91-3.29c-0.63-2.22-0.06-4.37,0.55-6.48
		c0.96-3.31,2.43-6.43,3.74-9.6c0.17-0.42,0.51-0.83,0.25-1.38c-1.09,0.07-1.52,1.28-2.53,1.46c-2.86,2.33-5,5.23-6.53,8.56
		c-1.63,3.55-2.99,7.2-4.08,10.95c-0.15,0.5-0.06,1.3-0.71,1.37c-0.63,0.07-0.95-0.63-1.26-1.13c-0.14-0.23-0.27-0.48-0.4-0.72
		c-0.3-0.26-0.54-0.13-0.83,0.08c-0.41,0.29-0.74,0.73-1.29,0.77c-2.91,2.03-6.12,2.89-9.66,2.53c-1.42-0.27-2.55-1.05-3.42-2.16
		c-0.61-0.77-1.08-0.93-1.58,0.06c-0.07,0.14-0.22,0.22-0.39,0.23c-0.55,0.57-1.1,1.15-1.67,1.71c-1.79,1.79-3.95,2.45-6.44,2.05
		c-2.26-0.18-3.02-1.79-3.47-3.61c-0.21,0.85-0.72,1.52-1.51,1.99c-0.93,0.8-1.77,1.7-2.88,2.29c-1.52,0.82-3.13,0.76-4.77,0.59
		c-2.03-0.79-2.84-2.51-3.17-4.46c-0.46-2.81-0.06-5.57,1.09-8.18c1.81-4.09,4.2-7.79,7.6-10.76c1.09-0.95,2.26-1.78,3.77-1.89
		c1.33-0.29,2.61-0.25,3.78,0.55c1.07,0.5,1.27,1.45,1.36,2.37c0.15-0.83,0.38-1.77,1.16-2.46c0.47-0.45,0.5-1.44,1.36-1.34
		c0.89,0.11,1.05,1.02,1.3,1.71c0.7,1.91,0.38,3.77-0.37,5.6c-1.32,3.21-2.63,6.43-3.91,9.66c-0.52,1.3-0.85,2.66-0.83,4.08
		c0.01,0.55-0.01,1.13,0.44,1.57c1.3,0.46,2.35-0.03,3.24-0.94c1.5-1.52,2.57-3.34,3.47-5.27c0.28-0.6,0.22-1.25,0.22-1.88
		c0.08-5.94,2.59-10.75,6.93-14.67c0.83-0.75,1.8-1.32,2.97-1.42c2.02-0.51,3.67,0.26,5.2,1.48c1.57,1.26,2.32,2.82,1.76,4.85
		c-0.48,1.73-0.97,3.45-1.47,5.18c-0.38,1.32-0.88,1.5-2.07,0.77c-0.2-0.12-0.39-0.27-0.59-0.41c-1.35-0.9-1.25-2.29-1.13-3.62
		c0.13-1.43,0.78-2.74,1.06-4.14c0.09-0.48,0.5-1.09-0.02-1.43c-0.51-0.32-0.92,0.28-1.33,0.54c-0.33,0.21-0.54,0.59-0.93,0.73
		c-0.13,0.08-0.31,0.13-0.4,0.25c-3.21,4.13-5.3,8.68-5.12,14.04c0.03,1,0.25,1.98,0.71,2.88c0.41,0.8,0.93,1.5,1.93,1.59
		c3.26-0.05,5.8-1.58,7.88-3.94c1.14-1.29,1.98-2.74,2.51-4.44c1.96-6.26,4.66-12.24,7.28-18.25c1.74-3.99,3.66-7.9,5.64-11.78
		c0.31-0.6,0.54-1.26,1.15-1.65c0.06-0.04,0.14-0.08,0.19-0.13c0.39-0.51,0.53-1.43,1.4-1.23c0.81,0.19,0.9,1.05,1.03,1.75
		c0.35,1.89,0.15,3.75-0.53,5.53c-1.18,3.09-2.7,6.02-4.19,8.96c0.24,1.18-0.77,1.9-0.99,2.81c1.18-1,2.11-2.51,3.9-2.86
		c1.44-0.48,2.76-0.38,3.8,0.87c1.22,1.46,1.4,3.08,0.71,4.82c-1.32,3.33-2.69,6.65-3.98,9.99c-0.58,1.49-0.95,3.05-0.63,4.68
		c0.1,0.51,0.21,1.02,0.66,1.36c1.81,0.36,3.05-0.44,4.07-1.86c1.5-2.09,2.73-4.27,3.37-6.81c1.07-4.27,2.75-8.33,4.6-12.32
		c0.17-0.36,0.33-0.74,0.74-0.9c0.45-0.47,0.53-1.45,1.36-1.34c0.84,0.12,1.07,1.01,1.3,1.72c0.57,1.74,0.36,3.47-0.26,5.16
		c-1.12,3.03-2.26,6.05-3.39,9.08c-0.44,1.17-0.69,2.38-0.77,3.62c-0.05,0.75-0.09,1.53,0.51,2.13c1.67,0.43,2.88-0.39,3.89-1.54
		c1.32-1.51,2.27-3.22,2.82-5.21c1.44-5.17,3.55-10.09,5.91-14.9c0.12-0.25,0.21-0.53,0.52-0.62c0.07-0.1,0.13-0.2,0.2-0.29
		c0.35-0.48,0.39-1.41,1.16-1.31c0.71,0.1,0.9,0.93,1.17,1.54c0.14,0.33,0.22,0.68,0.33,1.02c0.39,0.59,0.13,1.25,0.26,1.97
		c1.15-1.15,2.25-2.29,3.39-3.37c0.78-0.74,1.54-1.52,2.66-1.75c3.01-1.32,5.03,1.9,4.8,4.27c-0.07,0.68-0.26,1.32-0.52,1.96
		c-1.31,3.26-2.6,6.52-3.87,9.8c-0.5,1.28-0.7,2.62-0.59,4c0.05,0.67,0.1,1.36,0.71,1.83c1.57,0.44,2.75-0.23,3.66-1.39
		c1.82-2.31,3.12-4.85,3.9-7.73c1.61-5.99,4.82-10.98,9.91-14.64c0.65-0.47,1.37-0.82,2.21-0.78c1.27-0.28,2.53-0.34,3.68,0.43
		c0.88,0.2,0.97,1.08,1.44,1.69c0.46-0.49,0.47-1.28,1.09-1.64c0.42-0.48,0.41-1.47,1.3-1.37c0.89,0.1,1.1,0.98,1.34,1.68
		c0.62,1.83,0.32,3.61-0.3,5.39c-1.56,4.44-3.08,8.9-4.61,13.35c-0.08,0.22-0.1,0.46-0.15,0.7c0.25,0.67-0.34,1.19-0.29,1.98
		c2.36-1.71,4.37-3.65,6.06-5.92C474.77,115.08,474.9,114.52,475.51,114.42z"/>
	<path class="st9" d="M309.67,109.57c-0.02-9.19,0.04-18.39-0.07-27.58c-0.26-22.18-0.02-44.36-0.19-66.54
		c-0.03-3.9,2.13-5.95,4.51-6.65c3.24-0.95,7.76,1.15,7.73,6.54c-0.05,8.83-0.07,17.67,0.08,26.5c0.2,11.59,0.06,23.18,0.11,34.76
		c0.04,7.79,0.04,15.58,0.06,23.36C316.69,101.71,312.88,105.25,309.67,109.57z"/>
	<path class="st9" d="M341.85,72.31c0-9.35,0-18.7,0-28.06c0-2.97,2.24-5.79,4.98-6.24c3.23-0.54,6.18,1.18,7.22,4.19
		c0.3,0.87,0.46,1.76,0.46,2.7c0.02,17.82,0.05,35.65,0.13,53.47c0.01,2.12-0.07,4.15-1.5,5.88c-1.87,2.27-4.11,2.74-6.79,2.01
		c-2.46-0.66-4.23-3.13-4.26-5.65c-0.07-5.31-0.08-10.63-0.09-15.94c-0.01-4.12,0-8.23,0-12.35
		C341.95,72.31,341.9,72.31,341.85,72.31z"/>
	<path class="st9" d="M327.32,105.19c-0.67,0.07-1.21,0.43-1.71,0.81c-7.74,5.8-12.26,13.4-12.79,23.16
		c-0.13,2.36,0.2,4.71,1.17,6.91c0.67,1.52,1.64,2.74,3.42,3.02c3.42,0.09,5.6-1.96,7.53-4.4c1.22-1.54,2.19-3.24,2.96-5.04
		c0.13-0.31,0.15-0.73,0.59-0.82c0.2-0.43,0.4-0.86,0.59-1.3c0.17-0.4,0.24-0.92,0.8-0.92c0.59,0,0.76,0.52,0.91,0.97
		c0.43,1.33,0.43,2.66,0.07,4.01c-1.5,5.57-6.81,9.65-12.57,9.64c-0.64,0-1.27-0.02-1.91-0.03c-0.38-0.15-0.78-0.2-1.19-0.22
		c-3.16-1.03-4.96-3.41-6.07-6.35c-1.81-4.77-1.42-9.59,0.1-14.33c1.72-5.37,4.58-10.09,8.69-14c1.81-1.72,3.85-3.11,6.23-3.95
		c0.49-0.17,0.98-0.32,1.51-0.23c5.91-0.69,10,4.27,8.25,9.98c-0.53,1.72-0.96,3.46-1.41,5.2c-0.42,1.62-0.82,1.77-2.16,0.78
		c-0.16-0.12-0.32-0.23-0.48-0.35c-0.98-0.5-1.18-1.43-1.28-2.39c-0.14-1.36,0.08-2.69,0.42-4.01c0.33-1.27,0.61-2.55,0.83-3.84
		c0.32-1.85-0.16-2.38-2.04-2.24C327.63,105.24,327.48,105.21,327.32,105.19z"/>
	<path class="st9" d="M343.65,114.35c2.16-0.57,3.77,0.27,5.4,1.69c2.03,1.76,3.36,3.69,3.19,6.46c-0.05,0.77,0.32,0.79,0.87,0.48
		c0.26-0.15,0.52-0.23,0.74,0.05c0.21,0.27,0.11,0.62-0.1,0.75c-1.61,0.98-1.48,2.75-1.96,4.24c-0.02,0.07-0.06,0.15-0.09,0.22
		c-0.22,0.43-0.3,0.94-0.71,1.26c-0.67,1.79-1.51,3.51-2.63,5.07c-2.12,2.96-4.79,4.75-8.62,4.05c-2.44-0.57-3.91-2.24-4.83-4.43
		c-0.88-2.08-1.02-4.24-0.58-6.47c0.86-4.38,2.57-8.32,5.82-11.47C341.11,115.3,342.18,114.43,343.65,114.35z"/>
	<path class="st9" d="M321.97,112.79c0.25,0.36,0.13,0.77,0.11,1.14c-0.04,0.87-0.05,1.61,1.2,1.48c0.74-0.08,0.68,0.65,0.8,1.11
		c0.55,2.08,1.82,3.52,3.8,4.32c0.68,0.28,1.37,0.25,2.11,0.07c1.16-0.28,1.53,0.19,1.16,1.31c-0.68,2.07-1.21,2.39-3.32,2.01
		c-1.56-0.28-2.99,0.58-3.52,2.37c-0.35,1.19-0.94,1.54-2.13,1.49c-2-0.08-4-0.01-6,0.01c-0.59,0.01-1.04-0.06-0.93-0.84
		c0.74-5.44,2.92-10.24,6.47-14.43C321.77,112.8,321.88,112.81,321.97,112.79z"/>
	<path class="st10" d="M409.48,91.34c-1.93,3.86-3.91,7.69-5.64,11.63c-2.94,6.69-5.98,13.34-8.21,20.32
		c-1.17,3.68-3.64,6.13-7.04,7.7c-1.09,0.5-2.31,0.94-3.57,0.41c3.26-1.03,5.49-3.31,7.29-6.08c0.17-0.26,0.3-0.56,0.4-0.86
		c3.66-11.26,8.54-21.99,13.95-32.5c0.22-0.42,0.48-0.83,0.73-1.24c0.23-0.38,0.47-0.82,0.97-0.79c0.55,0.04,0.76,0.51,0.93,0.97
		C409.34,91.06,409.41,91.2,409.48,91.34z"/>
	<path class="st10" d="M325.65,102.11c-7.49,2.43-11.64,8.2-14.81,14.89c-2.44,5.15-3.35,10.57-1.87,16.18
		c0.92,3.51,2.85,6.31,6.45,7.62c-0.23,0.57-0.66,0.24-1.02,0.23c-2.21-0.13-3.95-1.19-5.36-2.82c-2.14-2.45-3.05-5.38-3.23-8.58
		c-0.47-8.52,3.01-15.53,8.41-21.77c2.12-2.45,4.73-4.29,7.82-5.37C323.2,102.09,324.39,101.7,325.65,102.11z"/>
	<path class="st10" d="M464.91,99.21c-2.78,1.07-4.89,3-6.64,5.32c-2.55,3.36-4.52,6.98-5.48,11.18c-0.64,2.8-2.14,5.33-4.22,7.41
		c-1.24,1.24-2.32,1.38-3.34,0.63c2.69-2.17,4.2-5.12,5.06-8.35c1.55-5.86,4.47-10.83,9.22-14.61
		C461.03,99.56,462.78,98.62,464.91,99.21z"/>
	<path class="st10" d="M351.42,128.32c0.21-0.96,0.56-1.88,0.55-2.88c-0.01-0.82,0.76-1.01,1.25-1.42c0.27-0.23,0.62-0.46,0.52-0.86
		c-0.07-0.25-0.41-0.13-0.63-0.18c1.77-3.74,3.98-7.18,7.21-9.84c1.72-1.41,3.59-2.56,5.99-1.99c-2,0.73-3.66,1.96-5.07,3.52
		c-3.32,3.66-5.92,7.73-7.03,12.63c-0.35,1.53-0.31,3.09-0.09,4.65c0.28,1.94,1.44,3.31,2.89,4.5c-2.14,0.35-3.85-0.55-4.83-2.57
		c-0.46-0.94-0.66-1.94-0.78-2.97C351.31,130.03,351.14,129.18,351.42,128.32z"/>
	<path class="st10" d="M387.43,108.7c-6.51,3.4-9.15,9.14-9.62,16.11c-0.08,1.2-0.28,2.25-0.86,3.27c-0.97,1.71-1.97,3.39-3.55,4.62
		c-1.2,0.93-1.98,0.95-2.81,0.18c2.15-1.61,3.36-3.9,4.51-6.24c0.21-0.43,0.08-0.86,0.09-1.3c0.09-6.09,2.45-11.14,7.05-15.11
		C383.7,108.97,385.41,108.23,387.43,108.7z"/>
	<path class="st10" d="M343.65,114.35c-6,3.22-10.06,11.09-9.08,17.55c0.44,2.91,1.95,5.01,4.59,6.32c0.21,0.1,0.39,0.26,0.58,0.4
		c-3.13,0.53-6.57-1.97-7.49-5.52c-0.69-2.67-0.38-5.3,0.42-7.91c1.1-3.58,2.76-6.82,5.72-9.21
		C339.9,114.76,341.55,113.78,343.65,114.35z"/>
	<path class="st10" d="M435.5,104.1c-2.21,4.85-4.44,9.71-5.93,14.84c-0.64,2.18-1.41,4.21-2.94,5.91c-0.7,0.78-1.45,1.49-2.46,1.84
		c-0.64,0.23-1.32,0.44-1.8-0.32c2.13-1.67,3.58-3.74,4.33-6.4c1.6-5.65,3.92-11.03,6.53-16.28c0.24-0.48,0.33-1.22,1-1.2
		c0.61,0.02,0.8,0.7,1.07,1.18C435.37,103.81,435.44,103.95,435.5,104.1z"/>
	<path class="st10" d="M460.36,123.72c1.05-0.71,2.04-1.48,2.96-2.45c0.24,1.66-0.61,3.5-1.87,4.24c-3.02,1.77-5.81,3.81-7.79,6.75
		c-1.87,2.79-3,5.8-2.11,9.24c0.06,0.38,0.29,0.68,0.41,1.03c0.61,1.14,1.45,2.12,2.38,3.01c-1.2,0.62-2.24,0.32-3.15-0.59
		c-2.24-2.25-3.02-4.88-2.23-8c0.92-3.61,3.06-6.36,5.87-8.67c1.3-1.07,2.68-2.03,4.17-2.81
		C459.75,125.07,460.27,124.6,460.36,123.72z"/>
	<path class="st10" d="M423.61,105.99c-1.99,4.35-3.93,8.74-5.05,13.41c-0.63,2.64-1.95,4.86-3.54,6.98
		c-0.51,0.67-1.1,1.29-1.87,1.64c-0.77,0.35-1.59,0.61-2.31-0.14c2.45-1.92,4.04-4.48,4.83-7.39c1.35-4.99,3.15-9.79,5.42-14.42
		c0.27-0.55,0.45-1.34,1.18-1.4C423.1,104.58,423.2,105.5,423.61,105.99z"/>
	<path class="st10" d="M442.27,106.41c0.59-0.67,1.31-1.17,2.09-1.59c0.22-0.12,0.5-0.34,0.77-0.1c0.26,0.23,0.13,0.53,0.03,0.78
		c-0.64,1.59-1.28,3.19-1.94,4.77c-1.27,3.02-2.53,6.04-2.88,9.35c-0.19,1.74-0.03,3.42,0.98,4.94c0.46,0.7,1.3,0.9,1.81,1.51
		c-3.77,0.22-5.66-1.81-5.41-5.79c0.19-3.07,1.25-5.91,2.39-8.72c0.6-1.47,1.22-2.94,1.84-4.41
		C441.98,106.88,442.11,106.64,442.27,106.41z"/>
	<path class="st10" d="M407.88,110.87c0.6-0.77,1.36-1.34,2.21-1.8c0.23-0.12,0.51-0.32,0.77-0.1c0.25,0.22,0.14,0.54,0.04,0.79
		c-0.5,1.26-1.03,2.51-1.55,3.76c-1.39,3.31-2.88,6.59-3.32,10.2c-0.21,1.74-0.05,3.42,0.93,4.95c0.45,0.7,1.26,0.94,1.83,1.49
		c-3.32,0.29-5.08-1.15-5.35-4.43c-0.2-2.32,0.42-4.51,1.13-6.67C405.48,116.26,406.82,113.62,407.88,110.87z"/>
	<path class="st11" d="M69.19,88.94c-2.41-4.11-7.26-4.28-10.46-1.48c-3.7,3.24-8.18,4.79-13.06,4.97
		c-10.14,0.37-19.18-5.64-22.6-15.1c-0.3-0.83-0.05-1.14,0.75-1.15c1.28-0.01,2.56,0,3.84,0c11.84-0.01,23.67,0.04,35.51-0.06
		c3.47-0.03,6.95-0.09,10.43-0.1c1.06,0,2.05-0.25,3.04-0.54c0.18-0.12,0.35-0.14,0.51,0.02c-1.12,0.98-2.54,0.89-3.85,0.93
		c-3.27,0.09-6.56-0.05-9.83,0.06c-12.98,0.41-25.96,0.12-38.94,0.19c-0.99,0.01-1.25,0.13-0.83,1.2
		c2.38,6.02,6.65,10.16,12.58,12.53c3.92,1.57,8.01,2.01,12.28,1.27c4.07-0.71,7.5-2.47,10.62-5.05c3.02-2.5,8.77-1.72,10.29,2.3
		C69.38,89.06,69.29,89.07,69.19,88.94z"/>
	<path class="st12" d="M104.5,99.73c3.29,1.92,6.7,3.52,10.44,4.36c10.57,2.37,20.32,0.53,29.25-5.63c0.6-0.41,1.09-1.39,1.88-1.03
		c0.8,0.37,0.28,1.37,0.4,2.08c0.53,3.18,3.19,5.73,6.68,5.36c4.11-0.44,6.1-2.85,6.09-7c-0.02-9.43-0.01-18.86-0.08-28.29
		c-0.05-7.09-1.75-13.73-5.73-19.69c-0.11-0.16-0.18-0.35-0.27-0.53c0.09-0.11,0.18-0.11,0.28-0.02c2.49,3.53,4.11,7.43,5.12,11.63
		c0.75,3.12,0.93,6.26,0.92,9.44c-0.01,9.15,0.31,18.29,0.22,27.44c-0.04,4.26-2.54,7.12-6.73,7.58c-2.15,0.24-5.25-1.77-6.27-3.92
		c-0.58-1.21-0.62-2.49-0.71-3.91c-2.06,1.38-3.91,2.77-5.97,3.82c-4.09,2.09-8.37,3.4-12.96,3.87c-6.94,0.71-13.48-0.54-19.71-3.57
		c-1-0.48-1.91-1.15-2.86-1.73c-0.06-0.06-0.08-0.12-0.05-0.18C104.45,99.76,104.48,99.73,104.5,99.73z"/>
	<path class="st13" d="M368.24,43.84c-0.38,1.25-1.01,2.4-0.99,3.78c0.06,3.45,2.5,5.97,5.93,6.04c3.46,0.07,3.46,0.07,3.46,3.59
		c0.01,13.15,0.02,26.3,0.05,39.45c0,1.55,0.03,3.12,0.24,4.66c0.35,2.47,2.7,4.61,5.11,4.85c2.89,0.29,5.39-1.22,6.37-3.82
		c0.32-0.83,0.45-1.68,0.45-2.57c-0.02-14.71-0.03-29.42-0.05-44.13c0-0.2,0.03-0.41-0.01-0.6c-0.26-1.23,0.32-1.49,1.44-1.47
		c3.12,0.06,6.24-0.04,9.35,0.04c2.22,0.06,4.27-0.32,6.08-1.66c-1.04,1.65-2.77,2-4.46,2.06c-3.75,0.11-7.52,0.04-11.27-0.02
		c-0.79-0.01-0.86,0.32-0.85,0.92c0.02,1.36,0.02,2.72,0.02,4.08c0.01,13.51-0.05,27.03,0.06,40.54c0.03,3.9-2.56,6.43-5.19,6.92
		c-4.08,0.76-7.58-2.29-7.6-6.78c-0.04-8.4-0.05-16.79-0.1-25.19c-0.04-6.44,0.08-12.87-0.04-19.31c-0.02-1.03-0.34-1.12-1.14-1.1
		c-1.39,0.02-2.78,0.08-4.14-0.42C366.61,52.07,365.8,46.19,368.24,43.84z"/>
	<path class="st14" d="M77.15,75.5c-0.17-0.01-0.34-0.02-0.51-0.02c0.7-0.76,1.71-1.14,2.31-2.05c0.84-1.27,1.35-2.62,1.31-4.14
		c-0.3-11.92-5.26-21.42-14.79-28.55c-4.7-3.52-9.97-5.74-15.78-6.43c-10.92-1.31-20.74,1.27-28.94,8.9
		c-1.31,1.22-2.54,2.53-3.81,3.8c-0.01-0.1-0.02-0.19-0.03-0.29c5.02-6.09,11.25-10.23,18.98-12.1c3.24-0.78,6.5-1.2,9.81-1.08
		c7.96,0.3,15.1,2.88,21.31,7.94c4.58,3.74,8.22,8.21,10.6,13.64c1.22,2.77,1.97,5.68,2.52,8.68c0.37,1.99,0.41,3.96,0.45,5.92
		C80.64,72.21,79.3,74.17,77.15,75.5z"/>
	<path class="st15" d="M327.32,105.19c0.75-0.46,1.59-0.73,2.34-0.17c0.75,0.56,0.71,1.47,0.54,2.31c-0.39,1.87-0.84,3.73-1.22,5.6
		c-0.34,1.7-0.21,3.34,0.87,4.79c-0.29,1.1-0.92,1.17-1.76,0.58c-1.69-1.17-2.05-2.87-1.75-4.74c0.24-1.53,0.69-3.02,0.98-4.54
		C327.55,107.75,328.05,106.46,327.32,105.19z"/>
	<path class="st16" d="M285.47,34.3c-1.92,1.9-2.56,4.48-3.55,6.86c-4.88,11.71-9.69,23.45-14.52,35.18
		c-0.44,1.07-0.86,2.15-1.29,3.22c-0.13,0.33-0.26,0.72-0.7,0.73c-0.46,0.01-0.52-0.4-0.66-0.73c-3.57-8.46-7.14-16.91-10.71-25.37
		c-1.69-4-3.38-8.01-5.07-12.02c-0.12-0.29-0.19-0.6-0.28-0.91c-0.09-0.13-0.08-0.25,0.05-0.35c2.13,4.59,4,9.29,5.96,13.96
		c3.48,8.26,6.95,16.52,10.43,24.78c0.04,0.1,0.15,0.17,0.33,0.38c0.55-1.31,1.07-2.53,1.58-3.75c2.45-5.93,4.88-11.87,7.33-17.8
		c2.99-7.25,5.97-14.51,9.01-21.75c0.44-1.04,1-2.1,2.07-2.72C285.58,34.09,285.59,34.19,285.47,34.3z"/>
	<path class="st17" d="M225.47,54.63c2.47-2.95,2.36-7.2-0.79-9.81c-0.89-0.74-1.62-1.66-2.49-2.42c-3.17-2.79-6.66-5.1-10.63-6.58
		c-5.32-1.99-10.77-2.91-16.51-2.17c-4.24,0.54-8.32,1.48-12.16,3.32c-5.43,2.6-9.95,6.23-12.21,12.05
		c-1.21,3.12-1.35,6.35-0.44,9.6c0.12,0.42,0.18,0.85,0.27,1.28c-0.08,0.08-0.17,0.09-0.25,0.01c-1.25-3.32-1.36-6.69-0.25-10.04
		c2.25-6.79,7.34-10.82,13.58-13.64c5.62-2.53,11.56-3.59,17.7-3.17c7.35,0.5,13.9,3.17,19.65,7.81c1.78,1.43,3.36,3.07,4.93,4.71
		c2.39,2.49,2.3,6.67-0.14,9.08C225.63,54.72,225.55,54.71,225.47,54.63z"/>
	<path class="st16" d="M170.26,59.9c0.08,0,0.17,0,0.25-0.01c0.9,1.91,1.92,3.75,3.31,5.37c2.14,2.48,4.99,3.9,7.96,4.93
		c7.53,2.61,15.14,5.01,22.71,7.49c2.61,0.86,5.2,1.77,7.83,2.57c2.8,0.85,3.14,3.76,1.44,5.62c-2.68,2.94-6.03,4.71-9.96,5.54
		c-2.79,0.58-5.58,0.6-8.33,0.31c-3.01-0.32-5.93-1.17-8.45-3.02c0.09-0.12,0.2-0.13,0.32-0.04c3.88,2.07,8.03,3.12,12.42,2.88
		c5.15-0.28,9.85-1.76,13.52-5.66c1.87-1.99,1.32-4.46-1.25-5.3c-8.98-2.92-17.97-5.8-26.94-8.75c-3.14-1.03-6.25-2.18-8.99-4.09
		C173.28,65.77,171.44,63.08,170.26,59.9z"/>
	<path class="st15" d="M328.5,128.82c-1.29,3.5-3.19,6.6-6.15,8.92c-1.42,1.11-3,1.97-4.94,1.34c3.06-1.22,4.98-3.64,6.64-6.33
		c1.01-1.63,1.78-3.39,2.46-5.18c0.16-0.42,0.22-1.03,0.87-0.96c0.56,0.06,0.72,0.57,0.85,1.04
		C328.34,128.04,328.41,128.43,328.5,128.82z"/>
	<path class="st18" d="M153.44,49.34c-0.09,0.01-0.19,0.01-0.28,0.02c-2.64-3.49-5.57-6.67-9.16-9.21
		c-4.43-3.15-9.28-5.17-14.68-5.99c-5.38-0.82-10.66-0.57-15.88,0.89c-5.78,1.61-10.7,4.71-14.97,8.9
		c-0.62,0.61-1.13,1.35-1.89,1.81c-0.03-0.47,0.34-0.7,0.6-0.98c3.92-4.23,8.51-7.48,13.95-9.41c2.85-1.01,5.78-1.65,8.83-1.93
		c4.02-0.36,7.96-0.16,11.86,0.75c6.16,1.43,11.5,4.38,16.1,8.74C150,44.89,151.89,46.96,153.44,49.34z"/>
	<path class="st15" d="M387.9,112.65c0.02-0.12-0.01-0.29,0.06-0.34c0.76-0.57,1.43-1.86,2.43-1.33c0.96,0.51,0.13,1.65-0.05,2.5
		c-0.2,0.93-0.51,1.84-0.76,2.76c-0.42,1.55-0.21,3,0.69,4.34c-0.35,1.01-1.02,0.97-1.78,0.52c-1.46-0.87-1.74-2.27-1.65-3.82
		C386.92,115.66,387.74,114.23,387.9,112.65z"/>
	<path class="st19" d="M425.85,98.57c1.35-0.7,2.3-0.51,3.25,0.65c0.44,0.53,0.74,1.13,0.88,1.81c0.21,1.02,0.24,2.03-0.62,2.77
		c-0.85,0.73-1.79,0.5-2.69,0.03C424.71,102.95,424.28,100.17,425.85,98.57z"/>
	<path class="st20" d="M104.5,99.73c-0.01,0.09-0.01,0.18-0.02,0.27c-1.63-0.87-3.08-1.99-4.44-3.21
		C94.1,91.5,89.84,85.1,88.29,77.24c-1.97-9.99-0.58-19.47,5.34-28.03c0.23-0.33,0.39-0.71,0.82-0.83
		c-0.85,1.71-2.05,3.22-2.89,4.94C88.75,59.01,87.61,65,87.93,71.3c0.6,11.68,6.01,20.68,15.31,27.52
		C103.66,99.13,104.08,99.43,104.5,99.73z"/>
	<path class="st15" d="M475.51,114.42c-1.67,2.78-3.94,4.98-6.5,6.92c-0.34,0.26-0.64,0.6-1.19,0.69c0.22-0.93,0.46-1.79,0.88-2.6
		c2.22-1.92,3.97-4.23,5.51-6.71c0.24-0.38,0.41-1.06,0.97-0.86c0.56,0.2,0.35,0.88,0.4,1.38
		C475.61,113.65,475.15,114.01,475.51,114.42z"/>
	<path class="st21" d="M176.25,96.84c3.31,2.45,6.79,4.61,10.71,5.96c2.72,0.93,5.51,1.46,8.37,1.77
		c5.21,0.56,10.24-0.18,15.18-1.76c4.63-1.48,8.73-3.87,12.14-7.38c0.19-0.19,0.44-0.33,0.66-0.49c-0.86,1.55-2.25,2.57-3.62,3.57
		c-4.15,3.03-8.78,4.93-13.85,5.9c-2.49,0.47-4.98,0.85-7.47,0.79c-8.26-0.2-15.74-2.7-22.15-8.07
		C176.15,97.01,176.16,96.92,176.25,96.84z"/>
	<path class="st22" d="M465.67,96.62c1.88-3.25,0.59-6.94-1.73-8.37c-2.25-1.4-5.22-1.29-7.26,0.43c-2.7,2.26-5.69,3.96-9.18,4.67
		c-7.98,1.62-14.89-0.5-20.78-6.05c-0.38-0.35-0.75-0.72-0.89-1.25c1.17,0.7,1.92,1.85,3,2.67c4.82,3.68,10.2,5.2,16.24,4.58
		c4.32-0.44,8.04-2.14,11.35-4.87c2.11-1.74,4.51-1.98,6.95-0.9c2.39,1.05,3.46,3.18,3.63,5.64
		C467.09,94.38,466.91,95.78,465.67,96.62z"/>
	<path class="st23" d="M245.15,66.56c1.43,3.33,2.88,6.66,4.29,10c2.81,6.65,5.56,13.33,8.4,19.97c0.48,1.11,0.57,2.04,0.06,3.18
		c-1.52,3.42-2.93,6.9-4.38,10.35c-0.15-0.17-0.13-0.34-0.02-0.52c1.43-3.55,2.85-7.1,4.3-10.63c0.22-0.53,0.22-0.95,0-1.47
		c-2.8-6.6-5.59-13.21-8.36-19.82c-1.46-3.49-2.88-7-4.32-10.5C244.98,66.92,244.97,66.74,245.15,66.56z"/>
	<path class="st24" d="M248.74,40.91c-0.02,0.12-0.03,0.23-0.05,0.35c-0.66-1.04-1.04-2.21-1.51-3.34
		c-1.47-3.57-4.65-5.38-7.85-4.45c-3.95,1.15-5.81,5.01-4.23,8.93c1.28,3.18,2.65,6.32,3.96,9.49c1.24,2.98,2.45,5.97,3.67,8.95
		c0.12,0.18,0.13,0.36-0.02,0.53c-1.85-4.4-3.71-8.79-5.55-13.19c-0.94-2.24-1.95-4.45-2.78-6.73c-1.25-3.45,1.66-7.96,5.31-8.42
		c4.33-0.55,6.57,1.57,8.23,5.65C248.22,39.41,248.47,40.16,248.74,40.91z"/>
	<path class="st25" d="M285.47,34.3c-0.01-0.1-0.02-0.19-0.03-0.29c2.16-1.66,4.58-1.69,6.91-0.7c2.6,1.11,3.83,3.41,4.06,6.17
		c0.08,0.92-0.24,1.89-0.6,2.78c-2.74,6.67-5.48,13.34-8.23,20c-0.44,1.06-0.94,2.11-1.4,3.16c-0.08,0.11-0.17,0.11-0.25,0
		c1.84-4.54,3.67-9.09,5.52-13.63c1.36-3.32,2.78-6.62,4.1-9.96c1.65-4.18-1.38-8.55-5.86-8.61
		C288.14,33.19,286.73,33.41,285.47,34.3z"/>
	<path class="st26" d="M425.85,98.57c-1.11,1.97-0.73,3.71,0.82,5.27c-1.03,0.75-1.97,0.47-2.8-0.31c-0.93-0.87-1.35-1.96-1.2-3.24
		C422.9,98.32,424.05,97.7,425.85,98.57z"/>
	<path class="st27" d="M405.69,43.09c-0.04,0-0.1,0.02-0.12,0c-1.89-1.66-4.18-1.46-6.45-1.44c-2.99,0.03-5.99-0.02-8.98,0.02
		c-1.09,0.01-1.59-0.3-1.56-1.51c0.08-2.98-0.11-5.97,0.74-8.89c0.39-1.35,0.91-2.62,1.67-3.8c0.14,0.09,0.16,0.2,0.05,0.33
		c-2.04,3.9-2.1,8.12-2.03,12.36c0.01,0.95,0.55,0.98,1.25,0.98c3.76-0.01,7.51-0.04,11.27,0.01
		C403.18,41.17,404.68,41.64,405.69,43.09z"/>
	<path class="st28" d="M176.25,96.84c-0.01,0.09-0.02,0.19-0.03,0.28c-2.61-1.93-5.22-3.92-6.24-7.15c-1.05-3.33,0.92-7.11,4.51-8.3
		c3.42-1.13,5.56,0.77,7.67,2.78c1.62,1.55,3.34,2.94,5.18,4.21c-0.11,0.01-0.21,0.03-0.32,0.04c-1.44-0.64-2.61-1.67-3.74-2.73
		c-1.22-1.14-2.41-2.34-3.79-3.28c-3.16-2.16-7.96-0.31-9.02,3.39c-0.77,2.7-0.2,5.01,1.81,6.95
		C173.59,94.31,174.93,95.57,176.25,96.84z"/>
	<path class="st29" d="M444.68,101.9c-1.11,0.84-2.25,1.65-3.2,2.68c-0.94,1.01-1.86,2.04-2.79,3.06c-0.11-0.08-0.21-0.17-0.32-0.25
		c0-0.78,0-1.56,0-2.34c1.13-1.01,2.17-2.13,3.49-2.91C442.76,101.62,443.69,101.32,444.68,101.9z"/>
	<path class="st30" d="M253.5,109.54c0.01,0.17,0.02,0.35,0.02,0.52c-2.16,5.27-4.32,10.54-6.48,15.8
		c-1.35,3.27-0.83,5.99,1.54,8.18c0.6,0.56,1.37,0.8,2.07,1.16c0.1,0.15,0.35,0.23,0.23,0.49c-3.52-1.04-6.39-5.2-4.24-10.02
		c2.28-5.12,4.33-10.35,6.48-15.53C253.22,109.92,253.37,109.74,253.5,109.54z"/>
	<path class="st31" d="M69.19,88.94c0.09,0,0.18-0.01,0.27-0.01c1.73,4.17,0.11,7.03-2.91,9.33c-3.81,2.91-7.92,5.12-12.58,6.35
		c-1,0.26-2.04,0.21-2.99,0.64c-0.23,0.17-0.47,0.12-0.71,0.06c-0.1-0.1-0.11-0.21-0.02-0.33c2.22-0.46,4.45-0.87,6.58-1.67
		c3.85-1.44,7.39-3.43,10.48-6.15c2.31-2.03,3.19-4.52,2.05-7.52C69.27,89.42,69.24,89.18,69.19,88.94z"/>
	<path class="st32" d="M225.47,54.63c0.08,0.01,0.17,0.01,0.25,0.02c-2.68,3.04-6.63,3.02-9.83-0.13c-2.31-2.27-4.69-4.43-7.69-5.76
		c-1.05-0.46-2.12-0.88-3.18-1.32c0.25-0.19,0.5-0.17,0.76-0.02c3.21,0.92,5.92,2.68,8.36,4.91c0.97,0.88,1.94,1.76,2.9,2.66
		c2.29,2.16,5.89,1.85,8.04-0.09C225.2,54.8,225.34,54.72,225.47,54.63z"/>
	<path class="st33" d="M205.78,47.42c-0.25,0.01-0.51,0.02-0.76,0.02c-2.42-0.42-4.83-0.86-7.3-0.74c-4.41,0.22-8.54,1.22-12.05,4.1
		c-0.14,0.12-0.36,0.16-0.54,0.23c-0.08-0.05-0.11-0.11-0.09-0.17c0.02-0.06,0.04-0.09,0.07-0.09c5.2-4.16,11.16-5.14,17.58-4.17
		C203.75,46.76,204.81,46.93,205.78,47.42z"/>
	<path class="st34" d="M15.93,91.34c0.09,0,0.17-0.01,0.26-0.01c4.6,5.77,10.3,10,17.29,12.44c0.08,0.06,0.1,0.12,0.07,0.18
		c-0.03,0.06-0.06,0.08-0.09,0.08c-4.24-1.28-8.02-3.41-11.41-6.24c-1.96-1.63-3.8-3.38-5.38-5.38
		C16.4,92.07,16.18,91.7,15.93,91.34z"/>
	<path class="st35" d="M364.65,133.55c0.51-0.74,1.03-1.48,1.73-2.5c0.27,2.19,1.35,3.52,3.24,4.12
		C367.7,135.43,365.96,135.17,364.65,133.55z"/>
	<path class="st35" d="M377.73,131.41c0.34-0.56,0.68-1.13,1.13-1.88c0.98,1.94,2.63,2.83,4.26,3.74
		C381.05,133.43,379.23,132.9,377.73,131.41z"/>
	<path class="st12" d="M285.92,65.42c0.08,0,0.17,0,0.25,0c-1.89,4.65-3.74,9.31-5.69,13.93c-0.48,1.13-0.71,2.37-1.5,3.37
		c-0.16-0.16-0.16-0.34-0.03-0.51C281.27,76.61,283.6,71.01,285.92,65.42z"/>
	<path class="st6" d="M399.65,8.77c-5.59,0.7-10.75,2.42-15.03,6.26c-0.23,0.21-0.41,0.5-0.78,0.5c1.32-1.9,3.29-2.97,5.24-4.05
		c2.67-1.47,5.6-2.23,8.56-2.87c0.65-0.14,1.35-0.05,2.03-0.06C399.66,8.62,399.66,8.7,399.65,8.77z"/>
	<path class="st36" d="M200.49,63.01c-4.88-1.59-9.76-3.18-14.64-4.78c-0.09-0.23-0.62-0.03-0.48-0.49
		c2.86,0.91,5.74,1.79,8.59,2.73c2.51,0.83,5.07,1.49,7.5,2.54C201.13,63.21,200.81,63.19,200.49,63.01z"/>
	<path class="st37" d="M407.11,20.56c4.38-1.19,5.75-5.38,4.3-8.67c-0.72-1.63-2.12-2.52-3.6-3.32c0.18-0.02,0.36-0.03,0.54-0.05
		c2.79,1.05,4.17,3.89,3.99,6.31c-0.23,3.15-2.4,5.55-5.19,6.01c-0.04-0.02-0.08-0.04-0.12-0.06
		C407,20.68,407.03,20.61,407.11,20.56z"/>
	<path class="st29" d="M451.68,122.84c0.44-0.6,0.89-1.21,1.44-1.97c0.59,1.52,1.55,2.61,2.94,3.28
		C454.36,124.53,452.89,124.13,451.68,122.84z"/>
	<path class="st38" d="M33.47,104.04c0-0.09,0.01-0.18,0.01-0.26c1.88,0.34,3.7,0.92,5.6,1.18c2.49,0.34,4.97,0.66,7.49,0.37
		c1.23-0.14,2.48-0.03,3.68-0.34c0,0.09,0.01,0.17,0.01,0.26c-0.11,0.18-0.36,0.08-0.48,0.24c-0.55,0.01-1.11,0.02-1.66,0.02
		c-0.37,0.25-0.85-0.07-1.21,0.23l0,0c-1.52,0.19-3.05,0.18-4.57,0C39.32,105.46,36.33,105.12,33.47,104.04z"/>
	<path class="st39" d="M372.61,111.61c-0.37,0.94-0.73,1.87-1.17,2.98c-0.29-1.18-0.71-2.09-1.35-2.9c0.07-0.14,0.12-0.29,0.2-0.42
		c0.24-0.44,0.41-1,1.01-1.02c0.61-0.02,0.82,0.52,1.07,0.95C372.44,111.34,372.53,111.47,372.61,111.61z"/>
	<path class="st40" d="M471.12,99.69c-0.33,0.79-0.65,1.58-1.09,2.64c-0.37-1.14-0.79-1.99-1.44-2.69c0.08-0.14,0.15-0.28,0.23-0.41
		c0.23-0.41,0.38-0.93,0.97-0.92c0.55,0.01,0.79,0.46,1.04,0.88C470.92,99.35,471.02,99.52,471.12,99.69z"/>
	<path class="st41" d="M410.28,106.16c-1.72,1.01-3.12,2.38-4.58,3.77c0.56-1.24,1.11-2.48,1.67-3.72
		C408.34,106.15,409.3,105.55,410.28,106.16z"/>
	<path class="st42" d="M345.91,32.78c-2.41-0.5-3.82-2.17-4.87-4.22c-1.29-2.52-0.64-5.84,0.79-7.29c0.15,0.14,0.2,0.31,0.19,0.51
		c-0.44,1.28-0.9,2.51-0.88,3.93c0.04,2.79,1.44,4.65,3.71,6c0.37,0.22,0.82,0.33,1.08,0.72C346.01,32.56,346,32.68,345.91,32.78z"
		/>
	<path class="st43" d="M222.59,71.89c-1.59-0.84-3.04-1.92-4.68-2.7c-1.97-0.94-3.99-1.69-6.08-2.31c-0.38-0.11-0.77-0.19-1.06-0.48
		c0.17-0.18,0.35-0.16,0.54-0.04c3.69,0.94,7.15,2.4,10.32,4.52C222.01,71.13,222.49,71.35,222.59,71.89z"/>
	<path class="st40" d="M416.69,127.68c0.47-0.57,0.94-1.15,1.52-1.85c0.54,1.35,1.38,2.32,2.66,2.85
		C419.34,128.91,417.91,128.74,416.69,127.68z"/>
	<path class="st44" d="M352.39,19.35c1.92,1.01,2.87,2.79,3.25,4.75c0.5,2.6-0.14,4.99-2.27,6.79c-0.1-0.08-0.15-0.19-0.15-0.31
		c0.33-1.03,1.16-1.78,1.51-2.82c0.99-2.89-0.02-5.21-1.87-7.34c-0.21-0.24-0.5-0.4-0.59-0.74
		C352.26,19.55,352.3,19.44,352.39,19.35z"/>
	<path class="st45" d="M391.06,27.8c-0.02-0.11-0.03-0.22-0.05-0.33c2.39-3.84,5.83-6.01,10.35-6.44c0.07,0.05,0.1,0.11,0.07,0.16
		c-0.02,0.06-0.05,0.08-0.07,0.08C397.02,22.03,393.47,24.03,391.06,27.8z"/>
	<path class="st13" d="M352.39,19.35c-0.01,0.09-0.02,0.18-0.03,0.26c-0.32,0.23-0.6,0.03-0.89-0.1c-3.45-1.55-6.04-1.06-8.73,1.64
		c-0.26,0.26-0.43,0.71-0.94,0.58c0-0.16,0.01-0.31,0.01-0.47C344.77,17.56,348.72,16.84,352.39,19.35z"/>
	<path class="st46" d="M211.31,66.36c-0.18,0.01-0.36,0.03-0.54,0.04c-3.45-1.05-6.93-2.02-10.28-3.39c0.32,0,0.64,0.01,0.96,0.01
		C204.71,64.2,208.09,65.05,211.31,66.36z"/>
	<path class="st47" d="M185.36,57.75c0.16,0.16,0.32,0.32,0.48,0.49c-1.32-0.25-2.62-0.56-3.1-2.03c-0.6-1.82,0.01-3.35,1.34-4.63
		c0.31-0.3,0.68-0.54,1.03-0.81c0.01,0.09,0.01,0.18,0.02,0.27c-0.41,0.43-0.82,0.86-1.22,1.29
		C181.99,54.39,182.67,56.9,185.36,57.75z"/>
	<path class="st48" d="M278.95,82.2c0.01,0.17,0.02,0.34,0.02,0.51c-1.2,2.93-2.39,5.87-3.6,8.8c-0.12,0.28-0.33,0.53-0.5,0.79
		c0.43-2.03,1.39-3.87,2.18-5.76C277.66,85.09,278.08,83.54,278.95,82.2z"/>
	<path class="st49" d="M353.33,30.61c0.02,0.09,0.03,0.19,0.05,0.28c-2.15,1.97-4.58,2.82-7.47,1.89c0-0.08,0-0.16,0-0.24
		c0.28-0.3,0.65-0.32,1-0.26c2.02,0.37,3.79-0.21,5.42-1.35C352.63,30.73,352.93,30.51,353.33,30.61z"/>
	<path class="st50" d="M392.78,130.75c0.48-0.42,0.97-0.82,1.42-1.26c0.77-0.74,0.65-0.04,0.7,0.41c-0.08,0.18-0.15,0.36-0.22,0.54
		c-0.19,0.48-0.06,1.26-0.71,1.33C393.4,131.83,393.11,131.18,392.78,130.75z"/>
	<path class="st51" d="M242.71,61.37c0.01-0.18,0.01-0.35,0.02-0.53c0.95,1.85,1.71,3.78,2.42,5.73c-0.01,0.18-0.02,0.37-0.04,0.55
		C244.31,65.2,243.51,63.28,242.71,61.37z"/>
	<path class="st52" d="M427.24,127.11c0.44-0.4,0.89-0.79,1.31-1.21c0.37-0.37,0.43-0.07,0.52,0.21c-0.06,0.19-0.12,0.37-0.18,0.56
		C428.45,127.93,428.29,127.97,427.24,127.11z"/>
	<path class="st37" d="M401.36,21.29c0-0.08,0-0.16,0-0.25c0.07-0.02,0.14-0.03,0.21-0.04c1.83-0.22,3.65-0.51,5.5-0.26
		c0.03,0.03,0.05,0.06,0.08,0.09C405.23,21.11,403.3,21.26,401.36,21.29z"/>
	<path class="st53" d="M42.34,105.73c1.52,0,3.05,0,4.57,0C45.38,106.1,43.86,106.1,42.34,105.73z"/>
	<path class="st54" d="M351.42,128.32c-0.01,0.86-0.02,1.71-0.03,2.57c-0.42-0.38,0.04-1.03-0.41-1.4
		C351.05,129.07,351.11,128.65,351.42,128.32z"/>
	<path class="st55" d="M314.4,141.03c0.33-0.13,0.74,0.08,1.02-0.23c0.36,0.02,0.72,0.06,0.96,0.39
		C315.72,141.24,315.04,141.35,314.4,141.03z"/>
	<path class="st56" d="M250.89,135.69c-0.08-0.16-0.16-0.32-0.23-0.49c0.47-0.01,0.93,0.01,1.22,0.48
		C251.54,135.68,251.21,135.68,250.89,135.69z"/>
	<path class="st57" d="M442.27,106.41c-0.06,0.28-0.07,0.57-0.34,0.75c-0.08-0.1-0.16-0.2-0.24-0.29
		C441.79,106.6,442.01,106.47,442.27,106.41z"/>
	<path class="st53" d="M46.91,105.73c0.35-0.39,0.8-0.2,1.21-0.23C47.77,105.85,47.32,105.69,46.91,105.73z"/>
	<path class="st53" d="M49.78,105.48c0.16-0.08,0.32-0.16,0.48-0.24c0.24,0,0.48,0.01,0.73,0.01
		C50.64,105.62,50.19,105.44,49.78,105.48z"/>
	<path class="st25" d="M44.51,63.29c-6.79,0-13.58,0-20.38,0c-1.43,0-1.58-0.22-1.08-1.53c3-7.81,8.71-12.6,16.75-14.43
		c7.1-1.61,13.6,0.14,19.29,4.7c3.24,2.6,5.6,5.86,7.03,9.78c0.42,1.14,0.25,1.43-1,1.43c-6.87,0.01-13.74,0-20.62,0
		C44.51,63.26,44.51,63.28,44.51,63.29z"/>
	<path class="st58" d="M105.89,55.08c1.6-2.31,3.75-4.01,6.14-5.4c3.55-2.05,7.35-3,11.5-3.09c9.26-0.19,18.17,6.21,21.29,14.83
		c2.7,7.47,1.73,14.5-2.75,21.05c-0.34,0.49-0.73,0.94-1.1,1.41c-0.12,0.08-0.23,0.06-0.32-0.06c-0.15-0.46,0.15-0.75,0.39-1.07
		c4.28-5.63,5.4-11.99,3.85-18.74c-1.27-5.55-4.5-9.93-9.29-13.07c-8.93-5.84-20.29-4.65-27.84,2.88c-0.48,0.48-0.89,1.03-1.53,1.34
		C106.11,55.2,105.99,55.17,105.89,55.08z"/>
	<path class="st59" d="M105.89,55.08c0.09,0.01,0.18,0.01,0.27,0.02c0.17,0.6-0.28,0.97-0.57,1.37c-1.97,2.73-3.33,5.77-3.79,9.08
		c-0.63,4.47-0.28,8.89,1.67,13.08c1.6,3.43,3.85,6.31,6.93,8.54c0.46,0.33,1.11,0.55,1.09,1.3c-0.18,0.14-0.35,0.11-0.51-0.02
		c-4.14-2.84-7.25-6.56-8.85-11.32C99.46,69.16,100.54,61.73,105.89,55.08z"/>
	<path class="st60" d="M140.72,83.88c0.08,0,0.17,0,0.25,0c-0.54,1.31-1.68,2.1-2.68,2.97c-3.51,3.07-7.64,4.89-12.27,5.37
		c-3.8,0.4-7.55-0.08-11.14-1.5c-0.14-0.05-0.24-0.21-0.35-0.32c0.05-0.05,0.1-0.09,0.15-0.14c0.32-0.13,0.64-0.04,0.93,0.07
		c3.78,1.35,7.65,1.7,11.61,1.08c0.12-0.04,0.24-0.07,0.36-0.1c1.19-0.13,2.33-0.47,3.44-0.91c3.31-1.37,6.28-3.25,8.76-5.86
		C140.04,84.28,140.3,83.96,140.72,83.88z"/>
	<path class="st60" d="M110.98,88.44c0.15,0.01,0.31,0.02,0.46,0.04c0.9-0.01,1.5,0.64,2.24,0.99c0.33,0.26,0.89,0.29,0.92,0.87
		c0,0-0.06,0.08-0.06,0.08C113.19,90.04,112,89.39,110.98,88.44z"/>
	<path class="st61" d="M444,65.72c-5.76,0-11.52-0.01-17.28,0.01c-1.32,0-2.64,0.11-3.95,0.1c-1.15-0.01-1.33-0.31-0.93-1.39
		c3-7.96,8.84-12.61,17.08-14.08c10.51-1.88,20.55,4.35,24.15,13.89c0.46,1.21,0.34,1.4-0.96,1.4c-6.04,0.01-12.08,0-18.12,0
		C444,65.68,444,65.7,444,65.72z"/>
	<path class="st45" d="M407.07,20.75c-1.83,0.09-3.67,0.17-5.5,0.26c1.81-0.57,3.68-0.49,5.54-0.45
		C407.11,20.63,407.09,20.69,407.07,20.75z"/>
	<path class="st62" d="M358.85,133.86c-0.83-1.28-0.66-2.72-0.4-4.05c1.15-5.78,3.9-10.71,8.13-14.83c0.11-0.11,0.27-0.16,0.4-0.25
		c0.7,0.52,0.58,1.24,0.5,1.96c-0.32,2.85-1.37,5.49-2.48,8.1c-1.22,2.87-2.52,5.7-4.59,8.09
		C359.99,133.38,359.59,133.9,358.85,133.86z"/>
	<path class="st62" d="M457.62,121.82c-0.79-1.1-0.74-2.37-0.55-3.57c0.93-6.07,3.9-11.07,8.23-15.32c0.08-0.08,0.21-0.11,0.32-0.16
		c0.6,0.52,0.55,1.18,0.46,1.87c-0.43,3.37-1.71,6.47-3.1,9.52c-1.1,2.43-2.22,4.87-4.09,6.85
		C458.54,121.4,458.21,121.82,457.62,121.82z"/>
	<path class="st63" d="M457.62,121.82c0.96-0.74,1.75-1.65,2.37-2.68c2.68-4.48,4.87-9.15,5.75-14.35c0.11-0.68,0.11-1.35-0.11-2.01
		c0.56-0.73,1.37-0.92,2.12-0.6c0.73,0.3,0.58,1.15,0.59,1.82c0.03,1.58-0.4,3.08-0.9,4.56c-1.14,3.41-2.56,6.7-4.37,9.82
		c-0.75,1.3-1.73,2.38-2.85,3.35C459.23,122.56,458.46,122.58,457.62,121.82z"/>
	<path class="st63" d="M358.85,133.86c0.82-0.46,1.44-1.16,1.94-1.92c3.07-4.62,5.36-9.58,6.33-15.08c0.13-0.71,0.13-1.43-0.14-2.12
		c0.58-0.53,1.19-0.95,2.03-0.59c0.87,0.38,0.7,1.18,0.71,1.86c0.02,2.03-0.63,3.93-1.3,5.8c-0.94,2.59-2.06,5.1-3.38,7.52
		c-0.86,1.57-1.99,2.96-3.24,4.22C360.66,134.73,359.72,134.75,358.85,133.86z"/>
	<path class="st15" d="M458.15,131.19c0.96-1.4,2.19-2.52,3.73-3.75c-0.68,2.57-1.47,4.8-2.37,7c-0.95,2.33-2,4.61-3.37,6.74
		c-0.09,0.13-0.18,0.27-0.29,0.38c-0.37,0.39-0.66,1.1-1.29,0.87c-0.62-0.22-0.41-0.96-0.45-1.49c-0.02-0.27,0.05-0.55,0.08-0.83
		c0.07-0.27,0.18-0.53,0.23-0.81c1.08-2.35,2.13-4.72,3.15-7.1C457.72,131.84,458,131.55,458.15,131.19z"/>
	<path class="st64" d="M457.8,132.12c-0.84,2.57-1.99,5.01-3.25,7.4c-0.39,0.01-0.27-0.24-0.23-0.45c0.52-2.64,1.77-4.96,3.23-7.18
		C457.75,131.83,457.83,131.91,457.8,132.12z"/>
	<path class="st65" d="M457.8,132.12c-0.08-0.07-0.17-0.15-0.25-0.22c0.09-0.33,0.33-0.53,0.6-0.71
		C458.09,131.52,458.06,131.86,457.8,132.12z"/>
	<path class="st66" d="M454.32,139.07c0.08,0.15,0.15,0.3,0.23,0.45c-0.12,0.19-0.24,0.39-0.35,0.58
		C454.1,139.74,454.08,139.39,454.32,139.07z"/>
	<path class="st67" d="M451.96,142.53c-0.38-0.25-0.44-0.62-0.41-1.03C451.82,141.79,452,142.11,451.96,142.53z"/>
	<path class="st62" d="M339.36,136.2c-0.89-0.51-0.98-1.44-1.05-2.28c-0.4-4.66,0.91-8.85,3.55-12.67c1.27,0.87,2.27,2.08,3.68,2.77
		c0.32,0.15,0.34,0.53,0.25,0.86c-1.06,3.8-2.13,7.61-5.02,10.54C340.38,135.8,339.99,136.23,339.36,136.2z"/>
	<path class="st15" d="M339.36,136.2c1.39-0.86,2.37-2.1,3.16-3.5c1.33-2.37,2.19-4.92,2.91-7.53c0.18-0.64,0.08-0.98-0.57-1.28
		c-1.25-0.57-2.22-1.51-2.99-2.65c0.35-0.87,1.03-1.49,1.74-2.38c0.53,2.56,1.99,4.18,4.14,5.21c0.46,0.22,0.39,0.55,0.29,0.9
		c-0.84,3.18-1.85,6.29-3.78,9.01c-0.85,1.19-1.86,2.2-3.36,2.54C340.32,136.66,339.78,136.7,339.36,136.2z"/>
	<path class="st68" d="M348.53,122.48c-1.5-0.95-2.4-3.53-1.82-4.82c0.27-0.61,0.67-0.74,1.19-0.21c0.48,0.49,0.59,1.13,0.62,1.76
		C348.57,120.23,348.53,121.26,348.53,122.48z"/>
	<path class="st9" d="M353.33,30.61c-2.16,1.85-4.64,2.46-7.42,1.93c-3.57-1.31-5.35-4.3-5.1-7.64c0.09-1.15,0.48-2.17,1-3.16
		c2.13-2.87,4.89-3.98,8.41-3.11c0.79,0.2,1.38,0.76,2.14,0.98C355.65,22.1,356.74,26.87,353.33,30.61z"/>
	<path class="st62" d="M44.94,62.8c-6.47,0-12.95,0-19.42,0c-0.12,0-0.24,0-0.36,0c-2.08,0.02-2.12,0.01-1.32-1.92
		c2.38-5.76,6.61-9.64,12.33-12.01c2.88-1.2,5.9-1.75,8.98-1.65c5.39,0.17,10.15,2.05,14.28,5.58c2.83,2.42,4.8,5.38,6.25,8.77
		c0.43,1.01,0.29,1.25-0.83,1.24C58.21,62.77,51.57,62.79,44.94,62.8C44.94,62.8,44.94,62.8,44.94,62.8z"/>
	<path class="st62" d="M113.6,89.66c-0.72-0.4-1.44-0.79-2.16-1.19c-1.03-1.23-2.51-1.9-3.62-3.06c-2.97-3.08-5.08-6.59-5.99-10.81
		c-1.38-6.35-0.46-12.28,3.12-17.75c0.39-0.6,0.81-1.18,1.22-1.76c3.9-4.46,8.69-7.25,14.64-7.92c8.18-0.92,14.87,1.91,20.08,8.19
		c4.96,5.97,5.94,12.86,4.13,20.22c-0.69,2.8-2.05,5.34-3.91,7.58c-0.18,0.22-0.38,0.41-0.38,0.72c-2.57,3.13-5.82,5.29-9.58,6.73
		c-1.18,0.39-2.4,0.63-3.6,0.97v0C122.7,92.32,118.05,91.77,113.6,89.66z"/>
	<path class="st69" d="M113.6,89.66c0.52-0.1,0.91,0.23,1.34,0.41c3.25,1.29,6.59,1.93,10.1,1.54c0.83-0.09,1.67-0.03,2.5-0.03
		c-1.93,0.57-3.91,0.59-5.88,0.43c-2.43-0.2-4.78-0.8-7.06-1.67C114.27,90.11,113.93,89.89,113.6,89.66z"/>
	<path class="st69" d="M127.54,91.58c1.12-0.61,2.37-0.77,3.6-0.97C130.02,91.23,128.82,91.54,127.54,91.58z"/>
	<path class="st62" d="M453.14,65.2c-9.9,0.12-19.8,0.25-29.71,0.22c-1.62-0.01-1.65-0.03-1-1.58c2.91-6.96,8.12-11.22,15.42-12.84
		c10.49-2.33,20.54,3.25,24.54,12.5c0.74,1.71,0.74,1.71-1.11,1.71C458.57,65.2,455.85,65.2,453.14,65.2z"/>
</g>
</svg>
